<?xml version="1.0" standalone="no"?>
<!DOCTYPE svg PUBLIC "-//W3C//DTD SVG 20010904//EN"
 "http://www.w3.org/TR/2001/REC-SVG-20010904/DTD/svg10.dtd">
<svg version="1.0" xmlns="http://www.w3.org/2000/svg"
 width="944.000000pt" height="1280.000000pt" viewBox="0 0 944.000000 1280.000000"
 preserveAspectRatio="xMidYMid meet">
<g transform="translate(0.000000,1280.000000) scale(0.100000,-0.100000)"
fill="#000000" stroke="none">
<path d="M4407 12779 c-554 -61 -1073 -201 -1448 -390 -503 -254 -1014 -688
-1228 -1043 -180 -297 -320 -806 -361 -1311 -37 -455 35 -1071 174 -1485 94
-281 275 -612 545 -995 116 -164 275 -333 515 -546 l129 -114 -6 -275 c-5
-273 -17 -415 -58 -675 -69 -436 -198 -903 -338 -1219 -93 -210 -372 -733
-789 -1481 -737 -1322 -773 -1389 -967 -1780 -224 -454 -361 -780 -485 -1158
-39 -117 -75 -220 -80 -229 -6 -10 -10 -31 -10 -48 l0 -30 4116 0 c3919 0
4116 1 4103 18 -8 9 -46 55 -85 102 -214 258 -273 342 -532 772 -247 408 -260
424 -657 809 -245 237 -454 565 -517 811 -27 108 -18 175 52 393 29 88 58 189
66 225 19 89 18 313 -3 501 -21 197 -23 543 -4 619 23 94 58 155 120 212 131
122 318 222 555 297 150 48 226 59 516 76 146 9 292 20 325 25 147 24 405 80
457 100 155 58 231 221 232 495 l1 140 -54 150 c-35 95 -55 167 -55 195 -1 82
98 258 163 288 70 33 64 95 -24 226 -25 36 -45 70 -45 75 0 5 32 19 72 31 85
26 131 66 148 129 14 53 8 94 -36 234 -40 127 -44 187 -14 215 12 11 55 29 97
41 99 29 302 131 354 178 45 41 89 119 89 157 0 44 -67 214 -104 264 -19 27
-81 91 -137 143 -151 139 -389 468 -502 694 -81 164 -85 184 -107 548 -46 761
-89 1084 -195 1457 -170 596 -524 1099 -995 1412 -155 103 -459 257 -688 348
-529 209 -1095 344 -1642 390 -74 6 -171 15 -214 21 -112 13 -255 9 -449 -12z"/>
</g>
</svg>
